<svg xmlns="http://www.w3.org/2000/svg" viewBox="0 0 640 360" role="img" aria-label="Logo Agroforestal referencial">
  <defs>
    <linearGradient id="bg" x1="0" y1="0" x2="1" y2="1">
      <stop offset="0%" stop-color="#13491f" />
      <stop offset="100%" stop-color="#2a8d4b" />
    </linearGradient>
  </defs>
  <rect width="640" height="360" rx="34" fill="#f8fbff" />
  <rect x="20" y="20" width="600" height="320" rx="26" fill="url(#bg)" />
  <g transform="translate(92,64)">
    <circle cx="96" cy="108" r="82" fill="#f1f8e8" />
    <path d="M95 38c26 24 41 52 44 86-31-4-61-23-86-53 14-13 28-24 42-33z" fill="#5db55f" />
    <path d="M95 38c-18 26-29 56-31 93 29-6 55-22 76-47-12-17-27-32-45-46z" fill="#84cc70" />
    <rect x="87" y="116" width="18" height="92" rx="9" fill="#3f7c3f" />
    <ellipse cx="96" cy="221" rx="56" ry="16" fill="#d8c28c" />
  </g>
  <text x="298" y="152" font-family="Arial, Helvetica, sans-serif" font-size="50" font-weight="700" fill="#ffffff">AGROFORESTAL</text>
  <text x="298" y="198" font-family="Arial, Helvetica, sans-serif" font-size="24" fill="#d9f0db">desarrollo productivo sostenible</text>
</svg>
